<svg xmlns="http://www.w3.org/2000/svg" viewBox="0 0 93.89 93.89">
  <title>Organic Hemp</title>
  <defs>
    <style>
      .organic-hemp {
        fill: #fff;
      }
    </style>
  </defs>
  <g id="Layer_2" data-name="Layer 2">
    <g id="Layer_2-2" data-name="Layer 2">
      <g>
        <path class="organic-hemp" d="M77.07,11a57.92,57.92,0,0,1,.71-7.92c.11-.64.21-1.27.34-1.92A.26.26,0,0,0,78,.9a.24.24,0,0,0-.26,0c-.55.26-1.09.54-1.64.82L76,1.75a64.2,64.2,0,0,0-6.67,3.94A47.14,47.14,0,1,0,77.07,11ZM71.35,6.86c1.34-.87,2.71-1.72,4.13-2.49-.22,1.69-.37,3.35-.45,5C75,10.64,75,11.9,75,13.15a45.17,45.17,0,0,0,1.19,9.45l.41,1.61a57.67,57.67,0,0,1,2.2,18.32,44.91,44.91,0,0,1-2.4,12.72,48.77,48.77,0,0,1-5.87,11,68.52,68.52,0,0,1-8.14,10.23l-.13.12A48.46,48.46,0,0,0,69.74,53.1a49.51,49.51,0,0,0-4.62-22.94.24.24,0,0,0-.23-.14h-.07a.24.24,0,0,0-.17.28,59.18,59.18,0,0,1-.88,25.4,58.33,58.33,0,0,1-9.39,19.8c-.05-1.3-.13-2.42-.24-3.48a47.41,47.41,0,0,0-1.56-8.36c-.44-1.66-.93-3.55-1.44-6.33-1.59-8.72-3.38-18.6.3-28.47,2.79-7.45,7.71-12,12.05-15.95a57.54,57.54,0,0,1,5.12-4.18C69.5,8.09,70.42,7.46,71.35,6.86Zm-24.41,84A43.95,43.95,0,1,1,66.57,7.65q-2.34,1.77-4.49,3.73c-4.51,4.15-9.63,8.84-12.59,16.77-3.89,10.4-2,20.58-.4,29.57.52,2.87,1,4.8,1.48,6.51a45,45,0,0,1,1.5,8c.19,1.89.29,3.91.31,6,0,.92,0,1.84,0,2.54a.24.24,0,0,0,.16.24.25.25,0,0,0,.28-.07c.56-.66,1.11-1.32,1.62-2,.66-.83,1.23-1.58,1.73-2.28.06-.06,6.89-9.73,9.66-20.46.82-3.18,1.3-6.48,1.3-6.51.19-1.32.34-2.66.44-4,.07.64.14,1.28.19,1.93,0,0,.19,2.57.09,5.05a48.54,48.54,0,0,1-3,14.27,67,67,0,0,1-8.29,15.25c-.65.88-1.36,1.76-2.1,2.62a.25.25,0,0,0,0,.33.21.21,0,0,0,.18.09.33.33,0,0,0,.14,0c1-.67,2.09-1.39,3.09-2.12A59,59,0,0,0,63.87,78,60.45,60.45,0,0,0,72.2,67.54l.07-.11A50.73,50.73,0,0,0,78.36,56a46.89,46.89,0,0,0,2.52-13.32,60.49,60.49,0,0,0-2.26-18.94l0-.13c-.13-.53-.26-1-.36-1.45h0a41.8,41.8,0,0,1-1-7,43.91,43.91,0,0,1-30.23,75.8Z"/>
        <path class="organic-hemp" d="M34.2,49.7c-4.91-3.08-10.47-6.58-15.51-12.06a20.47,20.47,0,0,1-4.39-7,17.05,17.05,0,0,1-.63-2.19.23.23,0,0,0-.21-.2.26.26,0,0,0-.25.13c-.36.68-.73,1.4-1.08,2.14C9.55,35.94,6.68,44.08,7.7,52.2A22.78,22.78,0,0,0,11,62.13a22.24,22.24,0,0,0,6.08,6.22,110.45,110.45,0,0,0,15.26,8.88,69.18,69.18,0,0,1,6.28,3.41,22.22,22.22,0,0,1,6,5.92,28.65,28.65,0,0,1,1.66,2.66.24.24,0,0,0,.21.13h.07a.25.25,0,0,0,.18-.24c0-1.07,0-2.17-.12-3.27a41.9,41.9,0,0,0-4.45-16,42.14,42.14,0,0,0-5.57-8.3c.53.4,1,.83,1.54,1.27,5.26,4.67,8.64,11,10,18.92a44.87,44.87,0,0,1,.6,5.08.26.26,0,0,0,.23.24.28.28,0,0,0,.27-.2c.4-1.69.73-3.41,1-5.1,1.42-9.36.16-16.8-3.75-22.12C43.51,55.55,39.2,52.84,34.2,49.7Zm5.3,11.54a28,28,0,0,0-9.21-5,.26.26,0,0,0-.29.11.24.24,0,0,0,0,.3,66.42,66.42,0,0,1,10.28,14.1c.95,1.88,1.63,3.65,1.66,3.73a40,40,0,0,1,2.18,8.14,23.25,23.25,0,0,0-4.37-3.75,73,73,0,0,0-6.5-3.54,109.23,109.23,0,0,1-15-8.7A20.29,20.29,0,0,1,12.78,61a20.87,20.87,0,0,1-3-9.07c-.86-6.87,1.31-13.83,3.39-18.62a23.65,23.65,0,0,0,4,5.73c5.22,5.69,10.91,9.26,15.93,12.41,4.82,3,9,5.64,11.75,9.41s4,8.55,3.91,14.5A29,29,0,0,0,39.5,61.24Z"/>
      </g>
    </g>
  </g>
</svg>
