<svg xmlns="http://www.w3.org/2000/svg" width="94" height="94" viewBox="0 0 94 94">
    <g fill="none" fill-rule="evenodd">
        <path stroke="#272727" stroke-width="1.5" d="M93 47c0 25.406-20.593 46-45.998 46C21.592 93 1 72.406 1 47 1 21.59 21.593 1 47.002 1 72.407 1 93 21.59 93 47z"/>
        <path stroke="#272727" stroke-width="1.5" d="M52 40.502C52 55.135 46.5 67 46.5 67S41 55.135 41 40.502C41 25.865 46.5 14 46.5 14S52 25.865 52 40.502z"/>
        <path stroke="#272727" stroke-width="1.5" d="M66.628 52.354C58.069 62.849 47 68 47 68s2.813-11.863 11.377-22.354C66.936 35.151 78 30 78 30s-2.813 11.858-11.372 22.354z"/>
        <path stroke="#272727" stroke-width="1.5" d="M65.412 66.837C55.75 69.184 47 67.253 47 67.253s6.924-5.739 16.588-8.091C73.25 56.815 82 58.75 82 58.75s-6.924 5.74-16.588 8.087zM54.092 73.658C49.674 71.452 47 68 47 68s4.49.131 8.908 2.342C60.326 72.552 63 76 63 76s-4.49-.136-8.908-2.342zM27.372 52.354C35.931 62.849 47 68 47 68s-2.813-11.863-11.377-22.354C27.064 35.151 16 30 16 30s2.813 11.858 11.372 22.354z"/>
        <path stroke="#272727" stroke-width="1.5" d="M28.588 66.837C38.25 69.184 47 67.253 47 67.253s-6.924-5.739-16.588-8.091C20.75 56.815 12 58.75 12 58.75s6.924 5.74 16.588 8.087zM39.908 73.658C44.326 71.452 47 68 47 68s-4.49.131-8.908 2.342C33.674 72.552 31 76 31 76s4.49-.136 8.908-2.342z"/>
        <path stroke="#272727" stroke-linecap="round" stroke-width="1.5" d="M47.153 65S46.005 81 50 81"/>
        <path fill="#FEFEFE" d="M78.752 14.181l-64.16 64.16"/>
        <path stroke="#272727" stroke-linecap="round" stroke-width="1.5" d="M78.752 14.181l-64.16 64.16"/>
    </g>
</svg>
