<svg xmlns="http://www.w3.org/2000/svg" viewBox="0 0 92.39 92.39">
  <defs>
    <style>
      .releaf-1 {
        fill: none;
        stroke: #231f20;
        stroke-miterlimit: 10;
        stroke-width: 1.5px;
      }

      .releaf-2 {
        fill: #fff;
      }

      .releaf-3 {
        fill: #231f20;
      }
    </style>
  </defs>
  <g id="Layer_2" data-name="Layer 2">
    <g id="Layer_2-2" data-name="Layer 2">
      <circle class="releaf-1" cx="46.19" cy="46.19" r="45.44"/>
      <path class="releaf-2" d="M76.72,23.4a47.19,47.19,0,0,1-.61-17.65,56.93,56.93,0,0,0-11.82,8.36c-4.13,3.79-8.81,8.09-11.47,15.21-3.52,9.41-1.81,18.8-.3,27.1.48,2.65.95,4.45,1.36,6a43.72,43.72,0,0,1,1.48,7.86c.13,1.32.2,2.64.25,4A55.88,55.88,0,0,0,65,54.89a56.78,56.78,0,0,0,.83-24.17,46.37,46.37,0,0,1,4.35,21.63,46.42,46.42,0,0,1-8.21,24c.56-.53,1.12-1.07,1.66-1.62A65.05,65.05,0,0,0,71.32,65a46.66,46.66,0,0,0,5.59-10.51A43,43,0,0,0,79.2,42.35a55.11,55.11,0,0,0-2.1-17.43Z"/>
      <path class="releaf-2" d="M35.77,53.45c-4.74-3-10.11-6.36-15-11.72a22.19,22.19,0,0,1-4-5.85c-2.08,4.68-4.29,11.5-3.43,18.25a19.93,19.93,0,0,0,2.88,8.69,19.48,19.48,0,0,0,5.31,5.42A103.3,103.3,0,0,0,35.72,76.5a69.46,69.46,0,0,1,6.14,3.34A22,22,0,0,1,46.47,84a37.6,37.6,0,0,0-3.77-12.1A39.18,39.18,0,0,0,27.82,56.1a31.47,31.47,0,0,1,13.75,7,30.84,30.84,0,0,1,9.09,14.76C51,71.45,49.81,66.28,47,62.42,44.32,58.81,40.36,56.32,35.77,53.45Z"/>
      <path class="releaf-3" d="M78.18,23.05A46.3,46.3,0,0,1,77.76,4.9c.1-.6.2-1.21.32-1.82-.57.27-1.12.55-1.68.83A59.53,59.53,0,0,0,63.27,13C59,16.91,54.2,21.34,51.41,28.79c-3.66,9.8-1.91,19.41-.37,27.9.49,2.71,1,4.53,1.39,6.14a43.78,43.78,0,0,1,1.44,7.63c.19,1.89.28,3.8.29,5.7,0,.81,0,1.61,0,2.42.52-.6,1-1.22,1.54-1.86s1.11-1.42,1.65-2.18c0,0,6.44-9,9.09-19.28.78-3,1.23-6.14,1.23-6.14A56.58,56.58,0,0,0,68.17,43c.2,1.15.4,2.56.52,4.17,0,0,.18,2.42.09,4.82a48.24,48.24,0,0,1-2.9,13.6,56.25,56.25,0,0,1-8.23,14.46c-1.52,2-2.93,3.59-4,4.78v0c.55-.37,1.11-.74,1.65-1.12s1.36-1,2-1.51a69.41,69.41,0,0,0,7.35-6.49,66.2,66.2,0,0,0,7.92-10A47.73,47.73,0,0,0,78.32,55,44.47,44.47,0,0,0,80.7,42.43a57.24,57.24,0,0,0-2.15-17.88C78.41,24,78.28,23.5,78.18,23.05Zm1,19.3a43,43,0,0,1-2.29,12.12A46.66,46.66,0,0,1,71.32,65a65.05,65.05,0,0,1-7.74,9.72c-.54.55-1.1,1.09-1.66,1.62a46.42,46.42,0,0,0,8.21-24,46.37,46.37,0,0,0-4.35-21.63A56.78,56.78,0,0,1,65,54.89a55.88,55.88,0,0,1-9.34,19.39c0-1.33-.12-2.65-.25-4a43.72,43.72,0,0,0-1.48-7.86c-.41-1.58-.88-3.38-1.36-6-1.51-8.3-3.22-17.69.3-27.1,2.66-7.12,7.34-11.42,11.47-15.21A56.93,56.93,0,0,1,76.11,5.75a47.19,47.19,0,0,0,.61,17.65l.38,1.52A55.11,55.11,0,0,1,79.2,42.35Z"/>
      <path class="releaf-3" d="M36.57,52.17c-4.66-2.92-9.95-6.24-14.74-11.46A19.29,19.29,0,0,1,17.62,34a14.09,14.09,0,0,1-.6-2.11c-.32.6-.66,1.27-1,2-2.31,4.83-5.15,12.62-4.17,20.39a21.19,21.19,0,0,0,3.11,9.3,20.79,20.79,0,0,0,5.7,5.84A104.05,104.05,0,0,0,35,77.84a62,62,0,0,1,6,3.26,21.28,21.28,0,0,1,5.73,5.67,27.37,27.37,0,0,1,1.58,2.54c0-1,0-2-.12-3.08A39.39,39.39,0,0,0,37.31,61.72a28.28,28.28,0,0,1,3.27,2.5,30.84,30.84,0,0,1,9.59,18.06,40.12,40.12,0,0,1,.58,4.85c.39-1.67.7-3.27.93-4.82,1.34-8.8.18-15.77-3.5-20.78C45.36,57.69,41.28,55.14,36.57,52.17ZM50.66,77.86A30.84,30.84,0,0,0,41.57,63.1a31.47,31.47,0,0,0-13.75-7A39.18,39.18,0,0,1,42.7,71.85,37.6,37.6,0,0,1,46.47,84a22,22,0,0,0-4.61-4.11,69.46,69.46,0,0,0-6.14-3.34,103.3,103.3,0,0,1-14.21-8.26,19.48,19.48,0,0,1-5.31-5.42,19.93,19.93,0,0,1-2.88-8.69c-.86-6.75,1.35-13.57,3.43-18.25a22.19,22.19,0,0,0,4,5.85c4.93,5.36,10.3,8.74,15,11.72,4.59,2.87,8.55,5.36,11.2,9C49.81,66.28,51,71.45,50.66,77.86Z"/>
    </g>
  </g>
</svg>
