<svg xmlns="http://www.w3.org/2000/svg" width="88" height="94" viewBox="0 0 88 94">
    <g fill="none" fill-rule="evenodd" stroke="#020303" stroke-width="1.5">
        <path d="M49.946 52.515v-.068c.608-4.359 1.554-8.65 2.905-12.873 7.298-2.044 12.298-5.381 14.73-10.013 1.419-2.656 1.69-5.108 2.027-7.697.338-2.724.676-5.585 2.297-9.263a31.571 31.571 0 0 1 5.203-8.174L79 2.247l-2.838-.612C64.473-.953 52.582 4.564 47.784 14.713c-5 10.625.202 20.91 1.824 23.703-.676 2.384-1.351 4.904-1.892 7.356-1.148-2.52-2.567-4.972-4.189-7.152-.135-3.133-1.149-12.464-8.851-18.186-8.108-6.062-19.865-5.585-28.581 1.226L4 23.363l2.365 1.226c2.905 1.43 5.608 3.27 8.04 5.313 2.568 2.18 3.987 3.95 5.27 5.585 1.352 1.703 2.5 3.133 4.46 4.427 2.568 1.703 5.743 2.589 9.46 2.589 2.364 0 4.932-.34 7.702-1.022 2.365 3.338 4.122 7.22 5.135 11.239-.473 3.542-.675 7.152-.675 10.762v.068c0 1.498.067 3.065.135 4.631C45.37 68.08 48.414 70 48.414 70s1.189-.534 1.059-.593a57.866 57.866 0 0 1-.203-4.836c1.081-1.77 2.23-3.473 3.581-5.04 1.352.409 2.703.613 3.92.613 1.418 0 2.77-.272 3.918-.817 1.96-.886 2.973-2.248 4.46-4.155.81-1.022 1.824-2.316 3.243-3.883 1.284-1.362 2.567-2.724 3.986-4.018l1.554-1.703-1.891-1.226c-5.068-3.27-11.622-3.065-16.217.477-5.067 3.882-5.405 9.944-5.405 11.92-.405.408-.743.885-1.081 1.362.135-1.908.338-3.747.54-5.586h.068z"/>
        <path d="M72.787 76.168c-2.46-2.528-5.605-3.075-7.314-3.144a12.028 12.028 0 0 0-6.015-4.645c-4.034-1.367-7.588-.138-9.365.751a18.068 18.068 0 0 0-2.94-1.64c-.817-.66-2.526-1.13-3.623-1.23-2.119-.41-4.58-.41-7.177.547-3.76 1.367-6.016 4.1-7.11 5.875-2.187-.272-5.878-.136-9.433 2.256-2.597 1.776-3.964 4.03-4.716 5.67L14 83h62l-.547-2.119c-.478-1.775-1.435-3.416-2.666-4.713zM15 17c7.51-6.857 17.295-11 28-11 3.087 0 6.1.348 9 1.002M8.594 25C3.793 31.83 1 40.04 1 48.87 1 61.118 6.374 72.167 15 80"/>
        <path d="M71 15c9.733 7.96 16 20.41 16 34.398C87 61.848 82.043 73.073 74.098 81M16 83c7.386 6.258 16.775 10 27 10 10.219 0 19.608-3.742 27-10"/>
    </g>
</svg>
