<svg xmlns="http://www.w3.org/2000/svg" width="94" height="95" viewBox="0 0 94 95">
    <g fill="none" fill-rule="evenodd" stroke="#272727" stroke-width="1.5">
        <path d="M73.504 10.402C85.304 18.729 93 32.46 93 48.007 93 73.407 72.41 94 47 94 21.604 94 1 73.407 1 48.007 1 22.593 21.604 2 47 2c7.292 0 14.195 1.692 20.32 4.718"/>
        <path d="M74.57 2c-2.648 8.878-1.066 17.291.979 25.411 3.685 14.647.218 27.529-8.886 39.04C61.91 72.459 56.198 77.73 50.339 83c14.462-15.375 21.47-32.348 13.023-53.015 1.607 10.55 1.13 20.92-3.48 30.747-2.152 4.586-4.789 8.948-6.984 13.003-1.695-8.194-3.58-16.36-5.045-24.598C44.968 32.921 49.24 19.21 63.166 9.243 66.821 6.63 70.762 4.403 74.571 2z"/>
        <path d="M28.07 55.645C38.054 63.128 44.92 71.672 44.824 85c-3.354-5.524-7.993-8.19-13.056-10.429-3.62-1.602-7.145-3.499-10.508-5.595C9.262 61.5 6.044 50.82 11.72 37.78c.675-1.55 1.521-3.022 2.415-4.78 4.225 7.576 11.297 11.542 17.837 16.21 4.414 3.153 8.867 6.525 12.393 10.597 5.458 6.3 5.515 13.93 3.15 22.23-.867-12.705-8.778-23.616-19.445-26.392z"/>
    </g>
</svg>
