<?xml version="1.0" encoding="UTF-8"?>
<svg width="20px" height="28px" viewBox="0 0 20 28" version="1.1" xmlns="http://www.w3.org/2000/svg" xmlns:xlink="http://www.w3.org/1999/xlink">
    <!-- Generator: Sketch 51.2 (57519) - http://www.bohemiancoding.com/sketch -->
    <title>organic_icon</title>
    <desc>Created with Sketch.</desc>
    <defs></defs>
    <g id="Symbols" stroke="none" stroke-width="1" fill="none" fill-rule="evenodd">
        <g id="organic_icon" transform="translate(1.000000, 3.000000)" stroke="#DFE45A">
            <g>
                <path d="M11.0933657,19.8156822 L10.8843394,18.6894527 C10.7800779,18.127694 10.6938883,17.6763567 10.4995312,16.668099 C10.4900165,16.6187403 10.4900165,16.6187403 10.4805013,16.5693763 C10.0816544,14.5001275 9.89751521,13.5004157 9.70541239,12.3003534 C8.97656666,7.75079605 10.1782527,4.09650894 13.4612069,1.4862155 C13.9602164,1.08986089 14.3724426,0.798939043 15.3020695,0.169010545 C15.3057254,0.16653327 15.3057254,0.16653327 15.3093809,0.164056215 C15.7269036,-0.118863384 15.9158344,-0.248016885 16.1458012,-0.409332431 L17.2726042,-1.19975472 L16.9158493,0.12959792 C16.4120827,2.00675109 16.5308363,3.74993124 17.149237,6.47764228 C18.0166684,10.3092473 17.2678376,13.8059672 14.9953413,16.9995499 C14.0291135,18.3557589 13.0112788,19.4758931 11.1332027,21.3535892 L10.3980215,20.676994 C10.6412924,20.3895452 10.8731029,20.1025088 11.0933657,19.8156822 Z" id="Stroke-3"></path>
                <path d="M9.44429347,21.7272691 L9.44401977,21.7654229 L9.43680255,21.7535413 L9.32412406,22.1487277 L9.27956968,21.4946899 L8.52933119,20.2595772 C7.8584669,19.1551378 6.99408842,18.5154653 5.48907074,17.8488081 C4.58325232,17.4479983 3.68086601,16.9662771 2.80114784,16.4178001 C-0.404549673,14.4206006 -1.29842917,11.4874724 0.221359759,7.99654163 C0.25944243,7.90891319 0.300582695,7.81982834 0.345996676,7.72613923 C0.439889364,7.53243847 0.791443487,6.86481155 0.837558637,6.77386965 L1.26263231,5.93559834 L1.72023785,6.75656337 C2.40840556,7.99116735 3.21016368,8.69885797 5.22075139,10.0810224 C5.23451254,10.0904824 5.23451254,10.0904824 5.24827957,10.0999464 C5.63026605,10.3625439 5.81461374,10.4905251 6.03309998,10.6464599 C7.51013855,11.699824 8.42745784,12.4601744 9.21994675,13.3744445 C10.6016027,14.9703344 10.8119481,16.9306257 10.109209,19.3952747 L9.44429347,21.7272691 Z" id="Stroke-7"></path>
            </g>
        </g>
    </g>
</svg>