<svg id="Layer_1" data-name="Layer 1" xmlns="http://www.w3.org/2000/svg" viewBox="0 0 433.44 68.4"><defs>
	<style>.svg-logo{fill:#4d4d4f;}</style>
</defs><title>O&amp;amp;R-logo-charcoalArtboard 1</title><path class="svg-logo" d="M308.85,50.48h-2.24L296.61,36h-1V50.48h-1.95V19.81h3.82c2.48,0,4.92,0,7,1.55A7.68,7.68,0,0,1,307.59,28c0,5.32-3.7,8.09-8.79,8ZM298.11,34.13c1.91,0,3.83-.08,5.37-1.43a6.13,6.13,0,0,0,2.16-4.84,5.86,5.86,0,0,0-3.26-5.53c-1.62-.77-3.7-.69-5.49-.69h-1.26V34.13Z"/><path class="svg-logo" d="M359.28,35.15a15.91,15.91,0,0,1-31.81,0,15.91,15.91,0,0,1,31.81,0Zm-29.85,0a14,14,0,1,0,13.95-13.92A14,14,0,0,0,329.43,35.15Z"/><path class="svg-logo" d="M394,24.85a7,7,0,0,0-6.22-3.62A5.77,5.77,0,0,0,382,27.09c0,3.21,3,4.56,5.53,5.74l5.86,3.05a6.69,6.69,0,0,1,3.5,6.1c0,5.08-4.64,8.91-9.6,8.91a9.48,9.48,0,0,1-9-6.59l1.71-.78c1.3,3.26,3.7,5.54,7.4,5.54a7.46,7.46,0,0,0,7.56-7.24c0-3.46-3.54-4.93-6.18-6.23l-5.53-2.93A6.15,6.15,0,0,1,380,27.17a7.5,7.5,0,0,1,7.85-7.77,8.59,8.59,0,0,1,7.48,4.31Z"/><path class="svg-logo" d="M420,21.64V32.79h12.36v1.83H420v14h12.69v1.83H418.08V19.81h14.64v1.83Z"/><path class="svg-logo" d="M32.53,35.15a15.91,15.91,0,0,1-31.81,0,15.91,15.91,0,0,1,31.81,0Zm-29.86,0a14.05,14.05,0,0,0,14,13.91,14.11,14.11,0,0,0,14-13.91,14.08,14.08,0,0,0-14-13.92A14.05,14.05,0,0,0,2.67,35.15Z"/><path class="svg-logo" d="M81.73,51.5,56,24.12V50.48H54V19.4L79.78,46.57V19.81h2Z"/><path class="svg-logo" d="M101.3,19.81h2.15l9,15.54,9-15.54h2.16L113.46,37.38v13.1h-1.95V37.38Z"/><path class="svg-logo" d="M141.58,19.81h2.15l7,13.18,7-13.18H160l-8,15,8.42,15.66h-2.12l-7.48-13.87-7.4,13.87h-2.12l8.38-15.66Z"/><path class="svg-logo amp" d="M264,12.88c0,6.21-3.85,10.42-8.67,12.83a125.13,125.13,0,0,1-13.59,4.78c7.15,3,10,8.89,10,15.51,0,11.08-10.28,21.9-27.93,21.9-15.82,0-29.63-8.72-29.63-22.8,0-13.27,12.25-18.32,16.89-19.52-6.12-2.64-9.2-7.29-9.2-11.8,0-5.95,5.27-11.44,15.46-11.44,4.65,0,7.6,1.2,9.52,2.77a8.48,8.48,0,0,1,3.4,6.3,5,5,0,0,1-5.14,4.87,4.55,4.55,0,0,1-4.79-4.6,5.09,5.09,0,0,1,4.88-5c-.54-1.56-3.22-2.95-7-2.95-6.21,0-10.59,3.84-10.59,10.91A13.49,13.49,0,0,0,212.29,25,40.18,40.18,0,0,1,218,24.5c2.19,0,3.66.72,3.66,2.1,0,1.12-1,1.75-2.55,1.75-2.32,0-5.23-1.39-6.7-2-7.06,2.11-11.89,6.48-11.89,15C200.49,54,211.31,61.1,225,61.1c12.91,0,24-6.3,24-16.76a13.84,13.84,0,0,0-9.21-13.27c-4.15,1.3-8.09,2.55-10.54,3.49-4.56,1.74-8,4-8,7.95,0,4.78,4.92,7.33,8.4,7.33,1.66,0,5.14-.62,5.5-2-1.92-.36-4.29-1.56-4.29-4.65a4.94,4.94,0,0,1,9.88.18c0,5.23-6,7.87-10.91,7.87-5.18,0-11.35-3.13-11.35-10.73,0-6.3,4.34-10.5,12.65-13.36,5.5-1.83,15.55-4.11,22.34-7.2,6.13-2.86,7.87-5.67,7.87-8.8,0-5.23-5-9.25-10.64-9.25-1.47,0-2.46.27-2.72.8a4.91,4.91,0,0,1,2.54,4.25c0,2.55-2.36,4.47-5.14,4.47a4.52,4.52,0,0,1-4.82-4.56c0-4.78,5.67-6.35,10-6.35C258.14.5,264,5.11,264,12.88Z"/></svg>